<svg width="247" height="262" viewBox="0 0 247 262" fill="none" xmlns="http://www.w3.org/2000/svg">
<path d="M242.938 125.748L242.967 125.446L242.949 125.144C242.353 114.789 241.448 104.182 237.188 94.5022C232.842 84.6264 225.158 76.0199 211.641 69.2444C198.613 62.7138 185.427 60.2389 174.902 58.2633C174.65 58.2161 174.4 58.1692 174.152 58.1225C168.731 57.1039 164.224 56.2296 160.61 55.0338C156.972 53.8301 154.867 52.4909 153.731 50.9628C152.616 49.4639 152.312 47.8848 152.573 45.8585C152.858 43.6435 153.778 41.184 155.01 38.1301C155.105 37.8945 155.201 37.6552 155.3 37.4125C156.399 34.7004 157.67 31.5636 158.364 28.3765C159.141 24.8063 159.281 20.8437 157.621 16.8218C156.525 14.1667 154.278 12.224 151.878 10.7977C149.419 9.33646 146.367 8.15986 142.989 7.22245C136.22 5.34392 127.562 4.26901 118.279 4.08108C99.8044 3.70707 77.8748 6.8336 62.4024 15.0794C48.2153 22.6402 34.1922 33.4156 23.4297 49.3295C12.6546 65.262 5.2997 86.1214 4.12645 113.601C3.8267 120.622 4.57949 141.344 4.89459 148.09C5.44684 159.913 6.93443 179.114 11.109 197.902C15.2341 216.468 22.1754 235.576 34.2609 246.298C40.8762 252.167 48.9139 254.922 57.2131 256.244C65.1494 257.507 73.6515 257.502 81.7089 257.497C82.013 257.496 82.3165 257.496 82.6193 257.496C82.622 257.496 82.6246 257.496 82.6273 257.496L161.705 257.716L161.718 257.716C170.277 257.713 181.235 257.151 192.099 252.072C203.081 246.938 213.577 237.381 221.598 220.117C229.502 203.105 234.817 179.396 238.155 160.211C239.833 150.565 241.027 141.962 241.802 135.77C242.19 132.672 242.473 130.175 242.66 128.448C242.753 127.585 242.822 126.914 242.868 126.457C242.88 126.341 242.89 126.238 242.899 126.15C242.908 126.065 242.915 125.993 242.92 125.935L242.934 125.798L242.937 125.763L242.938 125.753L242.938 125.75C242.938 125.749 242.938 125.748 238.956 125.377L242.938 125.748Z" fill="#EEFCF6"/>
<path d="M242.938 125.748L242.967 125.446L242.949 125.144C242.353 114.789 241.448 104.182 237.188 94.5022C232.842 84.6264 225.158 76.0199 211.641 69.2444C198.613 62.7138 185.427 60.2389 174.902 58.2633C174.65 58.2161 174.4 58.1692 174.152 58.1225C168.731 57.1039 164.224 56.2296 160.61 55.0338C156.972 53.8301 154.867 52.4909 153.731 50.9628C152.616 49.4639 152.312 47.8848 152.573 45.8585C152.858 43.6435 153.778 41.184 155.01 38.1301C155.105 37.8945 155.201 37.6552 155.3 37.4125C156.399 34.7004 157.67 31.5636 158.364 28.3765C159.141 24.8063 159.281 20.8437 157.621 16.8218C156.525 14.1667 154.278 12.224 151.878 10.7977C149.419 9.33646 146.367 8.15986 142.989 7.22245C136.22 5.34392 127.562 4.26901 118.279 4.08108C99.8044 3.70707 77.8748 6.8336 62.4024 15.0794C48.2153 22.6402 34.1922 33.4156 23.4297 49.3295C12.6546 65.262 5.2997 86.1214 4.12645 113.601C3.8267 120.622 4.57949 141.344 4.89459 148.09C5.44684 159.913 6.93443 179.114 11.109 197.902C15.2341 216.468 22.1754 235.576 34.2609 246.298C40.8762 252.167 48.9139 254.922 57.2131 256.244C65.1494 257.507 73.6515 257.502 81.7089 257.497C82.013 257.496 82.3165 257.496 82.6193 257.496C82.622 257.496 82.6246 257.496 82.6273 257.496L161.705 257.716L161.718 257.716C170.277 257.713 181.235 257.151 192.099 252.072C203.081 246.938 213.577 237.381 221.598 220.117C229.502 203.105 234.817 179.396 238.155 160.211C239.833 150.565 241.027 141.962 241.802 135.77C242.19 132.672 242.473 130.175 242.66 128.448C242.753 127.585 242.822 126.914 242.868 126.457C242.88 126.341 242.89 126.238 242.899 126.15C242.908 126.065 242.915 125.993 242.92 125.935L242.934 125.798L242.937 125.763L242.938 125.753L242.938 125.75C242.938 125.749 242.938 125.748 238.956 125.377L242.938 125.748Z" stroke="#222325" stroke-width="8"/>
<path d="M242.938 125.748L242.967 125.446L242.949 125.144C242.353 114.789 241.448 104.182 237.188 94.5022C232.842 84.6264 225.158 76.0199 211.641 69.2444C198.613 62.7138 185.427 60.2389 174.902 58.2633C174.65 58.2161 174.4 58.1692 174.152 58.1225C168.731 57.1039 164.224 56.2296 160.61 55.0338C156.972 53.8301 154.867 52.4909 153.731 50.9628C152.616 49.4639 152.312 47.8848 152.573 45.8585C152.858 43.6435 153.778 41.184 155.01 38.1301C155.105 37.8945 155.201 37.6552 155.3 37.4125C156.399 34.7004 157.67 31.5636 158.364 28.3765C159.141 24.8063 159.281 20.8437 157.621 16.8218C156.525 14.1667 154.278 12.224 151.878 10.7977C149.419 9.33646 146.367 8.15986 142.989 7.22245C136.22 5.34392 127.562 4.26901 118.279 4.08108C99.8044 3.70707 77.8748 6.8336 62.4024 15.0794C48.2153 22.6402 34.1922 33.4156 23.4297 49.3295C12.6546 65.262 5.2997 86.1214 4.12645 113.601C3.8267 120.622 4.57949 141.344 4.89459 148.09C5.44684 159.913 6.93443 179.114 11.109 197.902C15.2341 216.468 22.1754 235.576 34.2609 246.298C40.8762 252.167 48.9139 254.922 57.2131 256.244C65.1494 257.507 73.6515 257.502 81.7089 257.497C82.013 257.496 82.3165 257.496 82.6193 257.496C82.622 257.496 82.6246 257.496 82.6273 257.496L161.705 257.716L161.718 257.716C170.277 257.713 181.235 257.151 192.099 252.072C203.081 246.938 213.577 237.381 221.598 220.117C229.502 203.105 234.817 179.396 238.155 160.211C239.833 150.565 241.027 141.962 241.802 135.77C242.19 132.672 242.473 130.175 242.66 128.448C242.753 127.585 242.822 126.914 242.868 126.457C242.88 126.341 242.89 126.238 242.899 126.15C242.908 126.065 242.915 125.993 242.92 125.935L242.934 125.798L242.937 125.763L242.938 125.753L242.938 125.75C242.938 125.749 242.938 125.748 238.956 125.377L242.938 125.748Z" stroke="black" stroke-opacity="0.2" stroke-width="8"/>
<mask id="mask0_6542_1629" style="mask-type:alpha" maskUnits="userSpaceOnUse" x="8" y="8" width="231" height="246">
<path d="M238.956 125.377C237.761 104.625 235.377 85.6184 209.846 72.8206C184.315 60.0229 157.989 63.3963 150.52 53.3512C143.051 43.306 158.935 30.4906 153.923 18.3507C148.912 6.21077 93.5388 3.01669 64.2814 18.609C36.765 33.2734 10.4135 60.1168 8.12281 113.768C7.8323 120.572 8.5725 141.098 8.89024 147.9C9.98542 171.347 14.7823 223.668 36.9168 243.305C48.6102 253.679 65.7953 253.503 82.629 253.496L161.719 253.716C178.553 253.709 202.636 251.438 217.971 218.434C233.306 185.43 238.956 125.377 238.956 125.377Z" fill="#EEEFFC"/>
</mask>
<g mask="url(#mask0_6542_1629)">
<path d="M238.578 128.284C237.45 108.512 231.357 93.1359 207.259 80.943C183.16 68.75 154.122 70.7285 143.648 56.5085C133.173 42.2885 148.719 34.5663 143.989 23.0001C139.259 11.434 84.5345 9.13259 56.9184 23.9878C30.9457 37.959 10.2787 69.2704 8.11629 120.386C7.84206 126.869 8.54065 146.424 8.84054 152.905C9.8742 175.243 14.4017 225.091 35.2944 243.8C46.3318 253.684 62.5527 253.516 78.442 253.51L153.095 253.72C168.985 253.713 204.296 248.386 218.77 216.942C233.244 185.498 238.578 128.284 238.578 128.284Z" fill="#C9F4E1"/>
<path d="M215.532 197.804C207.998 215.232 199.881 230.306 183.259 239.938C166.637 249.571 137.856 247.825 119.322 247.489C48.7672 246.209 33.9212 229.677 24.2739 191.918C14.6266 154.158 34.216 74.6317 33.9532 58.4376C33.9532 58.4376 36.9852 36.7344 67.4124 52.0995C97.8395 67.4647 107.747 71.9182 140.069 85.7657C172.391 99.6133 195.984 106.489 216.408 126.031C236.831 145.573 223.067 180.376 215.532 197.804Z" fill="#52DD9E"/>
<g filter="url(#filter0_i_6542_1629)">
<path d="M219.438 196.601C215.269 214.721 202.851 233.352 190.414 239.191C177.976 245.03 137.039 248.378 116.973 247.934C58.0481 246.631 35.742 250.856 22.6237 192.838C9.50539 134.82 16.2624 58.1402 42.9621 48.218C42.9621 48.218 44.0767 65.3369 85.7772 89.6652C127.478 113.994 186.357 119.866 202.619 122.258C218.882 124.65 228.742 137.626 228.091 152.397C227.439 167.169 223.607 178.481 219.438 196.601Z" fill="#70FFBE"/>
</g>
<ellipse cx="8.76213" cy="10.4102" rx="8.76213" ry="10.4102" transform="matrix(0.977931 0.208927 -0.209737 0.977758 102.894 130.008)" fill="#222325"/>
<ellipse cx="8.76213" cy="10.4102" rx="8.76213" ry="10.4102" transform="matrix(0.977931 0.208927 -0.209737 0.977758 102.894 130.008)" fill="black" fill-opacity="0.2"/>
<ellipse cx="8.57621" cy="9.72492" rx="8.57621" ry="9.72492" transform="matrix(0.985367 0.170448 -0.171265 0.985225 152.761 131.85)" fill="#222325"/>
<ellipse cx="8.57621" cy="9.72492" rx="8.57621" ry="9.72492" transform="matrix(0.985367 0.170448 -0.171265 0.985225 152.761 131.85)" fill="black" fill-opacity="0.2"/>
<path d="M147.5 25.323C142.74 29.6283 133.452 42.1592 134.38 57.8399" stroke="#222325" stroke-width="8" stroke-linecap="round" stroke-linejoin="round"/>
<path d="M147.5 25.323C142.74 29.6283 133.452 42.1592 134.38 57.8399" stroke="black" stroke-opacity="0.2" stroke-width="8" stroke-linecap="round" stroke-linejoin="round"/>
<path d="M116.269 194.408C124.724 217.183 146.439 202.893 151.998 195.797" stroke="#222325" stroke-width="8" stroke-linecap="round" stroke-linejoin="round"/>
<path d="M116.269 194.408C124.724 217.183 146.439 202.893 151.998 195.797" stroke="black" stroke-opacity="0.2" stroke-width="8" stroke-linecap="round" stroke-linejoin="round"/>
</g>
<defs>
<filter id="filter0_i_6542_1629" x="16.1323" y="46.2178" width="212.989" height="201.755" filterUnits="userSpaceOnUse" color-interpolation-filters="sRGB">
<feFlood flood-opacity="0" result="BackgroundImageFix"/>
<feBlend mode="normal" in="SourceGraphic" in2="BackgroundImageFix" result="shape"/>
<feColorMatrix in="SourceAlpha" type="matrix" values="0 0 0 0 0 0 0 0 0 0 0 0 0 0 0 0 0 0 127 0" result="hardAlpha"/>
<feOffset dx="1" dy="-12"/>
<feGaussianBlur stdDeviation="1"/>
<feComposite in2="hardAlpha" operator="arithmetic" k2="-1" k3="1"/>
<feColorMatrix type="matrix" values="0 0 0 0 0.321569 0 0 0 0 0.376471 0 0 0 0 0.866667 0 0 0 0.6 0"/>
<feBlend mode="normal" in2="shape" result="effect1_innerShadow_6542_1629"/>
</filter>
</defs>
</svg>
