<svg width="394" height="594" viewBox="0 0 394 594" fill="none" xmlns="http://www.w3.org/2000/svg">
<path d="M133.865 331.197L144.815 340.203L161.9 324.379" stroke="#225D42" stroke-width="6" stroke-linecap="round" stroke-linejoin="round"/>
<line x1="48.126" y1="589.323" x2="317.305" y2="589.323" stroke="#222524" stroke-width="8" stroke-linecap="round"/>
<line x1="48.126" y1="589.323" x2="317.305" y2="589.323" stroke="black" stroke-opacity="0.2" stroke-width="8" stroke-linecap="round"/>
<g filter="url(#filter0_i_6527_148988)">
<path fill-rule="evenodd" clip-rule="evenodd" d="M138.941 389.349V483.773H170.875V397.13L138.941 389.349Z" fill="#70FFBE"/>
<path d="M167.497 365.751H142.319C140.453 365.751 138.941 367.226 138.941 369.046V389.349L170.875 397.13V369.046C170.875 367.226 169.363 365.751 167.497 365.751Z" fill="#222524"/>
<path d="M167.497 365.751H142.319C140.453 365.751 138.941 367.226 138.941 369.046V389.349L170.875 397.13V369.046C170.875 367.226 169.363 365.751 167.497 365.751Z" fill="black" fill-opacity="0.2"/>
<path d="M113.801 582.113H152.858C160.289 582.113 166.67 577.726 169.424 571.463H100.536C101.745 577.531 107.224 582.113 113.801 582.113Z" fill="#FF6D3B"/>
<path d="M135.563 543.504H125.062C111.38 543.504 100.288 554.319 100.288 567.66V568.936C100.288 569.8 100.373 570.645 100.536 571.463H169.424C170.358 569.34 170.875 567.001 170.875 564.544V559.397V543.504V483.773H138.941V540.209C138.941 542.029 137.428 543.504 135.563 543.504Z" fill="white"/>
</g>
<path d="M167.497 361.751H142.319C138.34 361.751 134.941 364.923 134.941 369.046V389.349V483.773V539.504H125.062C109.267 539.504 96.2881 552.015 96.2881 567.66V568.936C96.2881 570.064 96.3995 571.171 96.6133 572.244C98.2009 580.216 105.349 586.113 113.801 586.113H152.858C161.887 586.113 169.697 580.777 173.086 573.073C174.238 570.454 174.875 567.568 174.875 564.544V559.397V543.504V483.773V397.13V369.046C174.875 364.923 171.476 361.751 167.497 361.751Z" stroke="#222524" stroke-width="8" stroke-linejoin="round"/>
<path d="M167.497 361.751H142.319C138.34 361.751 134.941 364.923 134.941 369.046V389.349V483.773V539.504H125.062C109.267 539.504 96.2881 552.015 96.2881 567.66V568.936C96.2881 570.064 96.3995 571.171 96.6133 572.244C98.2009 580.216 105.349 586.113 113.801 586.113H152.858C161.887 586.113 169.697 580.777 173.086 573.073C174.238 570.454 174.875 567.568 174.875 564.544V559.397V543.504V483.773V397.13V369.046C174.875 364.923 171.476 361.751 167.497 361.751Z" stroke="black" stroke-opacity="0.2" stroke-width="8" stroke-linejoin="round"/>
<g filter="url(#filter1_i_6527_148988)">
<path fill-rule="evenodd" clip-rule="evenodd" d="M230.314 400.123V507.33H198.886V395.335L230.314 400.123Z" fill="#70FFBE"/>
<path d="M202.211 365.751H226.989C228.825 365.751 230.314 367.226 230.314 369.046V400.123L198.886 395.335V369.046C198.886 367.226 200.375 365.751 202.211 365.751Z" fill="#222524"/>
<path d="M202.211 365.751H226.989C228.825 365.751 230.314 367.226 230.314 369.046V400.123L198.886 395.335V369.046C198.886 367.226 200.375 365.751 202.211 365.751Z" fill="black" fill-opacity="0.2"/>
<path d="M255.054 582.113H216.618C209.749 582.113 203.792 578.243 200.848 572.584H267.837C266.24 578.087 261.122 582.113 255.054 582.113Z" fill="#FF6D3B"/>
<path d="M233.638 543.504H243.972C257.437 543.504 268.353 554.319 268.353 567.66V568.936C268.353 570.202 268.173 571.426 267.837 572.584H200.848C199.594 570.175 198.886 567.441 198.886 564.544V559.397V543.504V507.33H230.314V540.209C230.314 542.029 231.802 543.504 233.638 543.504Z" fill="white"/>
</g>
<path d="M202.211 361.751H226.989C230.999 361.751 234.314 364.982 234.314 369.046V400.123V507.33V539.504H243.972C259.611 539.504 272.353 552.075 272.353 567.66V568.936C272.353 570.583 272.119 572.182 271.678 573.698C269.593 580.886 262.928 586.113 255.054 586.113H216.618C208.213 586.113 200.912 581.373 197.299 574.43C195.757 571.466 194.886 568.1 194.886 564.544V559.397V543.504V507.33V395.335V369.046C194.886 364.982 198.201 361.751 202.211 361.751Z" stroke="#222524" stroke-width="8" stroke-linejoin="round"/>
<path d="M202.211 361.751H226.989C230.999 361.751 234.314 364.982 234.314 369.046V400.123V507.33V539.504H243.972C259.611 539.504 272.353 552.075 272.353 567.66V568.936C272.353 570.583 272.119 572.182 271.678 573.698C269.593 580.886 262.928 586.113 255.054 586.113H216.618C208.213 586.113 200.912 581.373 197.299 574.43C195.757 571.466 194.886 568.1 194.886 564.544V559.397V543.504V507.33V395.335V369.046C194.886 364.982 198.201 361.751 202.211 361.751Z" stroke="black" stroke-opacity="0.2" stroke-width="8" stroke-linejoin="round"/>
<path d="M145.282 543.029C154.842 543.059 161.844 546.505 161.844 546.505" stroke="#222524" stroke-width="8" stroke-linecap="round"/>
<path d="M145.282 543.029C154.842 543.059 161.844 546.505 161.844 546.505" stroke="black" stroke-opacity="0.2" stroke-width="8" stroke-linecap="round"/>
<path d="M223.482 543.029C213.922 543.059 206.92 546.505 206.92 546.505" stroke="#222524" stroke-width="8" stroke-linecap="round"/>
<path d="M223.482 543.029C213.922 543.059 206.92 546.505 206.92 546.505" stroke="black" stroke-opacity="0.2" stroke-width="8" stroke-linecap="round"/>
<path d="M298.568 263.987L302.565 264.151L302.565 264.141L302.565 264.132C303.038 251.07 302.454 238.447 298.464 226.428C294.445 214.318 287.053 203.066 274.31 192.593C261.062 181.705 243.612 179.193 229.074 178.165C225.782 177.933 222.73 177.78 219.873 177.636C216.146 177.449 212.752 177.279 209.595 176.97C206.9 176.707 204.665 176.362 202.884 175.88C201.072 175.39 200.023 174.834 199.453 174.34C197.987 173.071 197.578 171.84 197.593 170.322C197.613 168.489 198.266 166.28 199.335 163.306C199.489 162.876 199.653 162.431 199.821 161.972C200.73 159.488 201.788 156.599 202.401 153.686C203.149 150.133 203.337 146.15 201.804 142.082C200.006 137.31 195.812 134.685 191.051 133.475C186.334 132.277 180.525 132.294 174.237 133.135C161.605 134.824 145.87 140.001 130.349 147.453C100.816 161.631 66.4223 190.177 62.0904 244.89C61.5315 251.948 61.5111 258.979 61.591 265.897C61.7293 277.869 62.5479 298.583 66.1283 318.976C67.9187 329.173 70.417 339.394 73.9165 348.448C77.4007 357.462 81.9794 365.588 88.0825 371.334C100.375 382.906 116.815 390.254 135.072 390.917L219.531 393.979C237.788 394.641 254.715 388.503 267.813 377.851C276.039 371.161 282.149 360.455 286.756 348.7C291.396 336.86 294.683 323.501 297.01 311.034C299.34 298.547 300.727 286.843 301.532 278.267C301.934 273.976 302.192 270.46 302.349 268.011C302.428 266.786 302.482 265.828 302.516 265.173C302.533 264.845 302.545 264.593 302.553 264.421C302.557 264.335 302.56 264.27 302.562 264.224L302.564 264.172L302.564 264.157L302.565 264.153C302.565 264.152 302.565 264.151 298.568 263.987Z" fill="#EEFCF6"/>
<path d="M298.568 263.987L302.565 264.151L302.565 264.141L302.565 264.132C303.038 251.07 302.454 238.447 298.464 226.428C294.445 214.318 287.053 203.066 274.31 192.593C261.062 181.705 243.612 179.193 229.074 178.165C225.782 177.933 222.73 177.78 219.873 177.636C216.146 177.449 212.752 177.279 209.595 176.97C206.9 176.707 204.665 176.362 202.884 175.88C201.072 175.39 200.023 174.834 199.453 174.34C197.987 173.071 197.578 171.84 197.593 170.322C197.613 168.489 198.266 166.28 199.335 163.306C199.489 162.876 199.653 162.431 199.821 161.972C200.73 159.488 201.788 156.599 202.401 153.686C203.149 150.133 203.337 146.15 201.804 142.082C200.006 137.31 195.812 134.685 191.051 133.475C186.334 132.277 180.525 132.294 174.237 133.135C161.605 134.824 145.87 140.001 130.349 147.453C100.816 161.631 66.4223 190.177 62.0904 244.89C61.5315 251.948 61.5111 258.979 61.591 265.897C61.7293 277.869 62.5479 298.583 66.1283 318.976C67.9187 329.173 70.417 339.394 73.9165 348.448C77.4007 357.462 81.9794 365.588 88.0825 371.334C100.375 382.906 116.815 390.254 135.072 390.917L219.531 393.979C237.788 394.641 254.715 388.503 267.813 377.851C276.039 371.161 282.149 360.455 286.756 348.7C291.396 336.86 294.683 323.501 297.01 311.034C299.34 298.547 300.727 286.843 301.532 278.267C301.934 273.976 302.192 270.46 302.349 268.011C302.428 266.786 302.482 265.828 302.516 265.173C302.533 264.845 302.545 264.593 302.553 264.421C302.557 264.335 302.56 264.27 302.562 264.224L302.564 264.172L302.564 264.157L302.565 264.153C302.565 264.152 302.565 264.151 298.568 263.987Z" stroke="#222524" stroke-width="8"/>
<path d="M298.568 263.987L302.565 264.151L302.565 264.141L302.565 264.132C303.038 251.07 302.454 238.447 298.464 226.428C294.445 214.318 287.053 203.066 274.31 192.593C261.062 181.705 243.612 179.193 229.074 178.165C225.782 177.933 222.73 177.78 219.873 177.636C216.146 177.449 212.752 177.279 209.595 176.97C206.9 176.707 204.665 176.362 202.884 175.88C201.072 175.39 200.023 174.834 199.453 174.34C197.987 173.071 197.578 171.84 197.593 170.322C197.613 168.489 198.266 166.28 199.335 163.306C199.489 162.876 199.653 162.431 199.821 161.972C200.73 159.488 201.788 156.599 202.401 153.686C203.149 150.133 203.337 146.15 201.804 142.082C200.006 137.31 195.812 134.685 191.051 133.475C186.334 132.277 180.525 132.294 174.237 133.135C161.605 134.824 145.87 140.001 130.349 147.453C100.816 161.631 66.4223 190.177 62.0904 244.89C61.5315 251.948 61.5111 258.979 61.591 265.897C61.7293 277.869 62.5479 298.583 66.1283 318.976C67.9187 329.173 70.417 339.394 73.9165 348.448C77.4007 357.462 81.9794 365.588 88.0825 371.334C100.375 382.906 116.815 390.254 135.072 390.917L219.531 393.979C237.788 394.641 254.715 388.503 267.813 377.851C276.039 371.161 282.149 360.455 286.756 348.7C291.396 336.86 294.683 323.501 297.01 311.034C299.34 298.547 300.727 286.843 301.532 278.267C301.934 273.976 302.192 270.46 302.349 268.011C302.428 266.786 302.482 265.828 302.516 265.173C302.533 264.845 302.545 264.593 302.553 264.421C302.557 264.335 302.56 264.27 302.562 264.224L302.564 264.172L302.564 264.157L302.565 264.153C302.565 264.152 302.565 264.151 298.568 263.987Z" stroke="black" stroke-opacity="0.2" stroke-width="8"/>
<mask id="mask0_6527_148988" style="mask-type:alpha" maskUnits="userSpaceOnUse" x="65" y="136" width="234" height="255">
<path d="M298.568 263.987C299.501 238.209 296.167 215.734 271.77 195.683C247.373 175.632 206.538 185.766 196.835 177.364C187.132 168.962 202.759 155.958 198.061 143.492C193.363 131.026 162.636 136.389 132.08 151.059C103.343 164.855 70.2603 192.382 66.0779 245.206C65.5339 252.077 65.5112 258.959 65.5907 265.851C65.8651 289.605 68.8448 347.729 90.8242 368.421C102.436 379.352 117.96 386.293 135.216 386.919L219.675 389.982C236.932 390.608 252.918 384.809 265.289 374.748C295.02 350.567 298.568 263.987 298.568 263.987Z" fill="#AFB6EF"/>
</mask>
<g mask="url(#mask0_6527_148988)">
<path d="M302.109 270.57C303.029 245.161 301.169 217.397 277.704 197.653C254.239 177.91 205.632 185.119 190.512 185.504C175.392 185.89 185.763 166.513 181.252 154.229C176.741 141.945 143.03 150.001 116.488 163.068C89.9456 176.136 65.9142 204.291 61.8443 256.363C61.3149 263.136 61.2872 269.92 61.3581 276.713C61.6021 300.127 64.4213 357.417 85.5589 377.794C96.7256 388.56 111.662 395.388 128.271 395.99L209.559 398.938V398.938C247.965 400.331 282.171 370.006 292.34 332.945C300.633 302.725 302.109 270.57 302.109 270.57Z" fill="#C9F4E1"/>
<path d="M146.945 214.429C169.894 213.056 208.607 191.885 246.415 200.097C220.733 224.258 144.84 272.819 113.078 270.765C81.315 268.711 74.1695 257.749 76.54 237.497C78.9106 217.244 86.5009 210.296 104.91 212.022C123.318 213.749 123.995 215.803 146.945 214.429Z" fill="#52DD9E"/>
<g filter="url(#filter2_i_6527_148988)">
<path d="M289.87 263.484C289.948 238.283 286.623 229.113 276.583 217.669C266.543 206.224 249.095 195.202 219.992 198.536C190.888 201.87 174.713 211.196 163.71 218.034C152.707 224.872 128.389 242.191 102.78 236.118C77.1705 230.045 86.0316 213.885 81.9868 219.365C73.3925 231.007 70.8013 253.349 71.8522 276.532C72.9032 299.715 74.7771 346.717 97.2034 366.142C109.051 376.403 124.312 380.124 141.406 380.124L222.708 382.197C239.802 382.198 250.995 377.484 262.905 367.222C291.529 342.561 289.87 263.484 289.87 263.484Z" fill="#70FFBE"/>
</g>
</g>
<ellipse cx="7.64441" cy="7.54072" rx="7.64441" ry="7.54072" transform="matrix(0.999343 0.0362395 -0.0361715 0.999346 146.621 256.762)" fill="#222524"/>
<ellipse cx="7.64441" cy="7.54072" rx="7.64441" ry="7.54072" transform="matrix(0.999343 0.0362395 -0.0361715 0.999346 146.621 256.762)" fill="black" fill-opacity="0.2"/>
<path d="M261.869 266.556C261.869 288.461 244.335 306.136 222.807 306.136C201.279 306.136 183.746 288.461 183.746 266.556C183.746 244.651 201.279 226.975 222.807 226.975C244.335 226.975 261.869 244.651 261.869 266.556Z" stroke="#222524" stroke-width="8"/>
<path d="M261.869 266.556C261.869 288.461 244.335 306.136 222.807 306.136C201.279 306.136 183.746 288.461 183.746 266.556C183.746 244.651 201.279 226.975 222.807 226.975C244.335 226.975 261.869 244.651 261.869 266.556Z" stroke="black" stroke-opacity="0.2" stroke-width="8"/>
<ellipse cx="219.838" cy="264.08" rx="18.3136" ry="18.3236" fill="#222524"/>
<ellipse cx="219.838" cy="264.08" rx="18.3136" ry="18.3236" fill="black" fill-opacity="0.2"/>
<g filter="url(#filter3_i_6527_148988)">
<path d="M344.616 289.088L299.883 294.393L296.523 326.398C296.523 326.398 286.443 328.659 281.962 335.443C277.482 342.227 280.282 349.011 285.323 354.664C281.514 377.842 318.363 394.801 338.102 362.851C351.562 354.49 375.479 336.332 382.105 329.225C390.388 320.341 391.159 303.395 382.105 294.393C373.05 285.392 344.616 289.088 344.616 289.088Z" fill="#70FFBE"/>
</g>
<path d="M287.309 344.757C286.267 349.149 286.055 350.209 285.323 354.664M344.616 303.394L307.163 329.225C304.363 325.268 296.523 326.398 296.523 326.398M296.523 326.398C296.523 326.398 286.443 328.659 281.962 335.443C277.482 342.227 280.282 349.011 285.323 354.664M296.523 326.398L299.883 294.393L344.616 289.088C344.616 289.088 373.05 285.392 382.105 294.393C391.159 303.395 390.388 320.341 382.105 329.225C375.479 336.332 351.562 354.49 338.102 362.851C318.363 394.801 281.514 377.842 285.323 354.664M298.758 350.432C298.348 346.672 299.147 340.514 303.798 339.126" stroke="#222524" stroke-width="8" stroke-linecap="round" stroke-linejoin="round"/>
<path d="M287.309 344.757C286.267 349.149 286.055 350.209 285.323 354.664M344.616 303.394L307.163 329.225C304.363 325.268 296.523 326.398 296.523 326.398M296.523 326.398C296.523 326.398 286.443 328.659 281.962 335.443C277.482 342.227 280.282 349.011 285.323 354.664M296.523 326.398L299.883 294.393L344.616 289.088C344.616 289.088 373.05 285.392 382.105 294.393C391.159 303.395 390.388 320.341 382.105 329.225C375.479 336.332 351.562 354.49 338.102 362.851C318.363 394.801 281.514 377.842 285.323 354.664M298.758 350.432C298.348 346.672 299.147 340.514 303.798 339.126" stroke="black" stroke-opacity="0.2" stroke-width="8" stroke-linecap="round" stroke-linejoin="round"/>
<path d="M253.266 295.069L297.484 339.999" stroke="#222524" stroke-width="8" stroke-linecap="round"/>
<path d="M253.266 295.069L297.484 339.999" stroke="black" stroke-opacity="0.2" stroke-width="8" stroke-linecap="round"/>
<path d="M129.196 420.968C126.471 351.952 114.024 326.056 105.999 321.498C108.984 320.025 112.039 318.696 115.151 317.5C114.466 312.858 108.244 304.21 105.219 300.466C109.256 299.193 113.232 298.026 117.147 296.956L109.251 287.808C144.772 280.831 219.742 270.127 235.459 283.125L232.11 291.65C241.888 293.974 249.316 296.822 254.098 299.409L240.527 318.682C246.058 320.3 250.936 321.95 254.991 323.504C224.417 344.932 218.731 395.591 219.709 418.242L129.196 420.968Z" fill="#FABF48"/>
<g filter="url(#filter4_i_6527_148988)">
<path d="M60.6003 443.042C27.4599 427.414 52.9201 328.421 62.8374 312.127C64.1356 328.635 70.1078 363.257 89.1229 377.865C96.3933 368.875 114.849 344.715 114.849 344.715L118.205 357.638C125.84 349.651 138.189 352.098 140.575 362.133C143.918 376.19 131.694 395.797 122.12 408.206C112.545 420.615 88.0043 455.965 60.6003 443.042Z" fill="#70FFBE"/>
</g>
<path d="M66.1929 403.149C82.4116 385.731 89.1229 377.865 89.1229 377.865M89.1229 377.865C96.3933 368.875 114.849 344.715 114.849 344.715L118.205 357.638C125.84 349.651 138.189 352.098 140.575 362.133C143.918 376.19 131.694 395.797 122.12 408.206C112.545 420.615 88.0043 455.965 60.6003 443.042C27.4599 427.414 52.9201 328.421 62.8374 312.127C64.1356 328.635 70.1078 363.257 89.1229 377.865Z" stroke="#222524" stroke-width="8" stroke-linecap="round" stroke-linejoin="round"/>
<path d="M66.1929 403.149C82.4116 385.731 89.1229 377.865 89.1229 377.865M89.1229 377.865C96.3933 368.875 114.849 344.715 114.849 344.715L118.205 357.638C125.84 349.651 138.189 352.098 140.575 362.133C143.918 376.19 131.694 395.797 122.12 408.206C112.545 420.615 88.0043 455.965 60.6003 443.042C27.4599 427.414 52.9201 328.421 62.8374 312.127C64.1356 328.635 70.1078 363.257 89.1229 377.865Z" stroke="black" stroke-opacity="0.2" stroke-width="8" stroke-linecap="round" stroke-linejoin="round"/>
<ellipse cx="207.958" cy="255.166" rx="9.40428" ry="9.40941" fill="white"/>
<path d="M124.23 312.284C146.371 305.142 209.281 302.193 232.049 313.34M126.902 294.609C147.035 289.864 194.068 282.523 221.139 291.112" stroke="#222524" stroke-width="8" stroke-linecap="round" stroke-linejoin="round"/>
<path d="M124.23 312.284C146.371 305.142 209.281 302.193 232.049 313.34M126.902 294.609C147.035 289.864 194.068 282.523 221.139 291.112" stroke="black" stroke-opacity="0.2" stroke-width="8" stroke-linecap="round" stroke-linejoin="round"/>
<path fill-rule="evenodd" clip-rule="evenodd" d="M41.3619 16.3834C22.3826 24.2017 7.04381 41.8112 11.9328 68.3925C15.6257 88.2078 15.8049 88.314 33.5303 79.7517C48.4764 72.5083 47.839 73.5838 44.7762 61.5919C42.1692 51.3844 43.5461 44.873 50.3014 38.8874C65.3237 25.6932 83.6441 45.6466 85.5036 52.9274C87.5455 60.922 82.9137 66.5928 66.2664 76.4003C52.6638 84.4408 49.5049 91.7121 52.8174 107.062C53.8233 111.596 54.2357 115.292 53.8822 115.991C52.3633 119.269 60.7061 119.797 68.7281 116.986C92.7759 108.48 92.4739 108.785 88.7484 99.8522C86.4156 94.2893 86.7674 93.2868 92.1617 90.0065C105.193 82.112 111.177 71.9134 111.811 56.5428C113.605 16.8465 82.921 -0.63017 41.3619 16.3834ZM65.499 14.7744C82.1526 13.0257 102.44 29.9669 103.796 46.8817C105.056 62.5283 99.2747 73.8159 84.6297 84.024C77.5296 88.9571 75.9806 93.3074 78.1334 102.034L79.3731 106.888C70.8882 109.97 70.3175 110.116 64.8289 112.432C60.4495 91.119 58.476 89.3423 82.1822 73.5476C97.061 63.6599 97.146 49.1142 82.4688 35.9856C58.9278 14.9337 19.355 42.9977 35.0491 69.6299C35.7522 70.895 36.2762 72.0537 36.17 72.233C36.0106 72.5018 27.2647 76.9432 26.5513 77.1256C26.4799 77.1439 23.7382 68.4917 22.5444 65.6032C12.1819 40.8015 35.4769 18.0402 65.499 14.7744ZM65.1705 126.564C53.8239 135.701 57.3352 151.532 70.9686 152.837C98.164 155.465 116.934 134.925 98.7781 122.458C93.4006 118.662 71.5905 121.349 65.1705 126.564ZM84.528 126.177C90.4541 125.575 96.6148 128.866 97.7087 133.149C99.7323 141.072 81.3301 149.96 72.6795 145.252C68.4347 142.915 63.483 128.288 84.528 126.177Z" fill="#222524"/>
<path fill-rule="evenodd" clip-rule="evenodd" d="M41.3619 16.3834C22.3826 24.2017 7.04381 41.8112 11.9328 68.3925C15.6257 88.2078 15.8049 88.314 33.5303 79.7517C48.4764 72.5083 47.839 73.5838 44.7762 61.5919C42.1692 51.3844 43.5461 44.873 50.3014 38.8874C65.3237 25.6932 83.6441 45.6466 85.5036 52.9274C87.5455 60.922 82.9137 66.5928 66.2664 76.4003C52.6638 84.4408 49.5049 91.7121 52.8174 107.062C53.8233 111.596 54.2357 115.292 53.8822 115.991C52.3633 119.269 60.7061 119.797 68.7281 116.986C92.7759 108.48 92.4739 108.785 88.7484 99.8522C86.4156 94.2893 86.7674 93.2868 92.1617 90.0065C105.193 82.112 111.177 71.9134 111.811 56.5428C113.605 16.8465 82.921 -0.63017 41.3619 16.3834ZM65.499 14.7744C82.1526 13.0257 102.44 29.9669 103.796 46.8817C105.056 62.5283 99.2747 73.8159 84.6297 84.024C77.5296 88.9571 75.9806 93.3074 78.1334 102.034L79.3731 106.888C70.8882 109.97 70.3175 110.116 64.8289 112.432C60.4495 91.119 58.476 89.3423 82.1822 73.5476C97.061 63.6599 97.146 49.1142 82.4688 35.9856C58.9278 14.9337 19.355 42.9977 35.0491 69.6299C35.7522 70.895 36.2762 72.0537 36.17 72.233C36.0106 72.5018 27.2647 76.9432 26.5513 77.1256C26.4799 77.1439 23.7382 68.4917 22.5444 65.6032C12.1819 40.8015 35.4769 18.0402 65.499 14.7744ZM65.1705 126.564C53.8239 135.701 57.3352 151.532 70.9686 152.837C98.164 155.465 116.934 134.925 98.7781 122.458C93.4006 118.662 71.5905 121.349 65.1705 126.564ZM84.528 126.177C90.4541 125.575 96.6148 128.866 97.7087 133.149C99.7323 141.072 81.3301 149.96 72.6795 145.252C68.4347 142.915 63.483 128.288 84.528 126.177Z" fill="black" fill-opacity="0.2"/>
<line x1="142.52" y1="483.684" x2="166.875" y2="483.684" stroke="#222524" stroke-width="8" stroke-linecap="square"/>
<line x1="142.52" y1="483.684" x2="166.875" y2="483.684" stroke="black" stroke-opacity="0.2" stroke-width="8" stroke-linecap="square"/>
<line x1="101.135" y1="570.052" x2="166.875" y2="570.052" stroke="#222524" stroke-width="8" stroke-linecap="square"/>
<line x1="101.135" y1="570.052" x2="166.875" y2="570.052" stroke="black" stroke-opacity="0.2" stroke-width="8" stroke-linecap="square"/>
<line x1="202.886" y1="506.647" x2="227.241" y2="506.647" stroke="#222524" stroke-width="8" stroke-linecap="square"/>
<line x1="202.886" y1="506.647" x2="227.241" y2="506.647" stroke="black" stroke-opacity="0.2" stroke-width="8" stroke-linecap="square"/>
<line x1="202.886" y1="570.052" x2="268.5" y2="570.052" stroke="#222524" stroke-width="8" stroke-linecap="square"/>
<line x1="202.886" y1="570.052" x2="268.5" y2="570.052" stroke="black" stroke-opacity="0.2" stroke-width="8" stroke-linecap="square"/>
<defs>
<filter id="filter0_i_6527_148988" x="89.2881" y="357.751" width="89.5874" height="235.361" filterUnits="userSpaceOnUse" color-interpolation-filters="sRGB">
<feFlood flood-opacity="0" result="BackgroundImageFix"/>
<feBlend mode="normal" in="SourceGraphic" in2="BackgroundImageFix" result="shape"/>
<feColorMatrix in="SourceAlpha" type="matrix" values="0 0 0 0 0 0 0 0 0 0 0 0 0 0 0 0 0 0 127 0" result="hardAlpha"/>
<feOffset dx="-13" dy="10"/>
<feGaussianBlur stdDeviation="1.5"/>
<feComposite in2="hardAlpha" operator="arithmetic" k2="-1" k3="1"/>
<feColorMatrix type="matrix" values="0 0 0 0 0.141667 0 0 0 0 0.170204 0 0 0 0 0.425 0 0 0 0.34 0"/>
<feBlend mode="darken" in2="shape" result="effect1_innerShadow_6527_148988"/>
</filter>
<filter id="filter1_i_6527_148988" x="187.886" y="357.751" width="88.4668" height="235.361" filterUnits="userSpaceOnUse" color-interpolation-filters="sRGB">
<feFlood flood-opacity="0" result="BackgroundImageFix"/>
<feBlend mode="normal" in="SourceGraphic" in2="BackgroundImageFix" result="shape"/>
<feColorMatrix in="SourceAlpha" type="matrix" values="0 0 0 0 0 0 0 0 0 0 0 0 0 0 0 0 0 0 127 0" result="hardAlpha"/>
<feOffset dx="-13" dy="10"/>
<feGaussianBlur stdDeviation="1.5"/>
<feComposite in2="hardAlpha" operator="arithmetic" k2="-1" k3="1"/>
<feColorMatrix type="matrix" values="0 0 0 0 0.141667 0 0 0 0 0.170204 0 0 0 0 0.425 0 0 0 0.34 0"/>
<feBlend mode="darken" in2="shape" result="effect1_innerShadow_6527_148988"/>
</filter>
<filter id="filter2_i_6527_148988" x="68.6313" y="194.931" width="221.257" height="187.266" filterUnits="userSpaceOnUse" color-interpolation-filters="sRGB">
<feFlood flood-opacity="0" result="BackgroundImageFix"/>
<feBlend mode="normal" in="SourceGraphic" in2="BackgroundImageFix" result="shape"/>
<feColorMatrix in="SourceAlpha" type="matrix" values="0 0 0 0 0 0 0 0 0 0 0 0 0 0 0 0 0 0 127 0" result="hardAlpha"/>
<feOffset dx="-5" dy="-17"/>
<feGaussianBlur stdDeviation="1.5"/>
<feComposite in2="hardAlpha" operator="arithmetic" k2="-1" k3="1"/>
<feColorMatrix type="matrix" values="0 0 0 0 0.321569 0 0 0 0 0.376471 0 0 0 0 0.866667 0 0 0 0.6 0"/>
<feBlend mode="normal" in2="shape" result="effect1_innerShadow_6527_148988"/>
</filter>
<filter id="filter3_i_6527_148988" x="272.718" y="281.336" width="119.891" height="103.115" filterUnits="userSpaceOnUse" color-interpolation-filters="sRGB">
<feFlood flood-opacity="0" result="BackgroundImageFix"/>
<feBlend mode="normal" in="SourceGraphic" in2="BackgroundImageFix" result="shape"/>
<feColorMatrix in="SourceAlpha" type="matrix" values="0 0 0 0 0 0 0 0 0 0 0 0 0 0 0 0 0 0 127 0" result="hardAlpha"/>
<feOffset dx="-5" dy="-17"/>
<feGaussianBlur stdDeviation="1.5"/>
<feComposite in2="hardAlpha" operator="arithmetic" k2="-1" k3="1"/>
<feColorMatrix type="matrix" values="0 0 0 0 0.321569 0 0 0 0 0.376471 0 0 0 0 0.866667 0 0 0 0.6 0"/>
<feBlend mode="normal" in2="shape" result="effect1_innerShadow_6527_148988"/>
</filter>
<filter id="filter4_i_6527_148988" x="37.126" y="305.126" width="108.013" height="144.723" filterUnits="userSpaceOnUse" color-interpolation-filters="sRGB">
<feFlood flood-opacity="0" result="BackgroundImageFix"/>
<feBlend mode="normal" in="SourceGraphic" in2="BackgroundImageFix" result="shape"/>
<feColorMatrix in="SourceAlpha" type="matrix" values="0 0 0 0 0 0 0 0 0 0 0 0 0 0 0 0 0 0 127 0" result="hardAlpha"/>
<feOffset dx="-5" dy="-17"/>
<feGaussianBlur stdDeviation="1.5"/>
<feComposite in2="hardAlpha" operator="arithmetic" k2="-1" k3="1"/>
<feColorMatrix type="matrix" values="0 0 0 0 0.321569 0 0 0 0 0.376471 0 0 0 0 0.866667 0 0 0 0.6 0"/>
<feBlend mode="normal" in2="shape" result="effect1_innerShadow_6527_148988"/>
</filter>
</defs>
</svg>
