<svg width="530" height="462" viewBox="0 0 530 462" fill="none" xmlns="http://www.w3.org/2000/svg">
<g filter="url(#filter0_i_6539_1578)">
<path fill-rule="evenodd" clip-rule="evenodd" d="M312.399 315.596L315.692 378.624L287.033 379.514L283.914 290.312L312.399 315.596Z" fill="#70FFBE"/>
<path d="M286.361 250.995L308.956 250.293C310.63 250.241 312.026 251.536 312.074 253.187L312.399 315.596L283.914 290.312L283.415 254.077C283.368 252.427 284.686 251.047 286.361 250.995Z" fill="#222325"/>
<path d="M286.361 250.995L308.956 250.293C310.63 250.241 312.026 251.536 312.074 253.187L312.399 315.596L283.914 290.312L283.415 254.077C283.368 252.427 284.686 251.047 286.361 250.995Z" fill="black" fill-opacity="0.2"/>
<path d="M340.209 445.758L305.16 446.847C298.896 447.042 293.363 443.7 290.529 438.65L351.616 436.753C350.304 441.79 345.742 445.586 340.209 445.758Z" fill="#FF6D3B"/>
<path d="M319.67 411.343L329.093 411.05C341.372 410.669 351.609 420.17 351.958 432.272L351.992 433.429C352.025 434.577 351.893 435.692 351.616 436.753L290.529 438.65C289.323 436.501 288.606 434.041 288.531 431.413L288.396 426.744L287.98 412.327L287.033 379.514L315.692 378.624L316.552 408.449C316.6 410.099 317.996 411.395 319.67 411.343Z" fill="white"/>
</g>
<path d="M316.073 253.157L316.398 315.472L319.686 378.406C319.688 378.437 319.689 378.469 319.69 378.5L320.521 407.314L328.978 407.052C343.41 406.603 355.542 417.783 355.956 432.148L355.99 433.305C356.034 434.836 355.858 436.33 355.487 437.753C353.73 444.498 347.648 449.529 340.325 449.757L305.275 450.846C297.487 451.087 290.584 446.929 287.04 440.614C285.527 437.916 284.627 434.828 284.532 431.537L284.398 426.868L283.982 412.451L283.036 379.65L283.035 379.638L279.917 290.461C279.916 290.446 279.916 290.43 279.915 290.415C279.915 290.402 279.915 290.389 279.915 290.376L279.416 254.165C279.324 250.268 282.43 247.115 286.246 246.996L308.841 246.295C312.668 246.176 315.959 249.149 316.072 253.063C316.073 253.094 316.073 253.126 316.073 253.157Z" stroke="#222325" stroke-width="8" stroke-linejoin="round"/>
<path d="M316.073 253.157L316.398 315.472L319.686 378.406C319.688 378.437 319.689 378.469 319.69 378.5L320.521 407.314L328.978 407.052C343.41 406.603 355.542 417.783 355.956 432.148L355.99 433.305C356.034 434.836 355.858 436.33 355.487 437.753C353.73 444.498 347.648 449.529 340.325 449.757L305.275 450.846C297.487 451.087 290.584 446.929 287.04 440.614C285.527 437.916 284.627 434.828 284.532 431.537L284.398 426.868L283.982 412.451L283.036 379.65L283.035 379.638L279.917 290.461C279.916 290.446 279.916 290.43 279.915 290.415C279.915 290.402 279.915 290.389 279.915 290.376L279.416 254.165C279.324 250.268 282.43 247.115 286.246 246.996L308.841 246.295C312.668 246.176 315.959 249.149 316.072 253.063C316.073 253.094 316.073 253.126 316.073 253.157Z" stroke="black" stroke-opacity="0.2" stroke-width="8" stroke-linejoin="round"/>
<line x1="288.995" y1="382.225" x2="313.869" y2="382.096" stroke="#222325" stroke-width="8" stroke-linecap="round"/>
<line x1="288.995" y1="382.225" x2="313.869" y2="382.096" stroke="black" stroke-opacity="0.2" stroke-width="8" stroke-linecap="round"/>
<line x1="289.229" y1="438.752" x2="350.407" y2="435.987" stroke="#222325" stroke-width="8" stroke-linecap="round"/>
<line x1="289.229" y1="438.752" x2="350.407" y2="435.987" stroke="black" stroke-opacity="0.2" stroke-width="8" stroke-linecap="round"/>
<g filter="url(#filter1_i_6539_1578)">
<path fill-rule="evenodd" clip-rule="evenodd" d="M234.067 305.263V364.479H262.569V267.988L234.067 305.263Z" fill="#70FFBE"/>
<path d="M259.554 253.853H237.083C235.417 253.853 234.067 255.178 234.067 256.813V305.263L262.569 267.988V256.813C262.569 255.178 261.219 253.853 259.554 253.853Z" fill="#222325"/>
<path d="M259.554 253.853H237.083C235.417 253.853 234.067 255.178 234.067 256.813V305.263L262.569 267.988V256.813C262.569 255.178 261.219 253.853 259.554 253.853Z" fill="black" fill-opacity="0.2"/>
<path d="M211.63 452.853H246.488C253.121 452.853 258.816 448.91 261.274 443.282H199.791C200.869 448.735 205.76 452.853 211.63 452.853Z" fill="#FF6D3B"/>
<path d="M231.052 418.156H221.681C209.469 418.156 199.569 427.875 199.569 439.865V441.012C199.569 441.788 199.645 442.547 199.791 443.282H261.274C262.108 441.374 262.569 439.272 262.569 437.064V432.438V418.156V364.479H234.067V415.196C234.067 416.831 232.718 418.156 231.052 418.156Z" fill="white"/>
</g>
<path d="M259.554 249.853H237.083C233.278 249.853 230.067 252.9 230.067 256.813V305.263V364.479V414.156H221.681C207.329 414.156 195.569 425.597 195.569 439.865V441.012C195.569 442.05 195.671 443.069 195.867 444.058C197.319 451.399 203.864 456.853 211.63 456.853H246.488C254.735 456.853 261.855 451.946 264.94 444.883C265.989 442.481 266.569 439.835 266.569 437.064V432.438V418.156V364.479V267.988V256.813C266.569 252.9 263.359 249.853 259.554 249.853Z" stroke="#222325" stroke-width="8" stroke-linejoin="round"/>
<path d="M259.554 249.853H237.083C233.278 249.853 230.067 252.9 230.067 256.813V305.263V364.479V414.156H221.681C207.329 414.156 195.569 425.597 195.569 439.865V441.012C195.569 442.05 195.671 443.069 195.867 444.058C197.319 451.399 203.864 456.853 211.63 456.853H246.488C254.735 456.853 261.855 451.946 264.94 444.883C265.989 442.481 266.569 439.835 266.569 437.064V432.438V418.156V364.479V267.988V256.813C266.569 252.9 263.359 249.853 259.554 249.853Z" stroke="black" stroke-opacity="0.2" stroke-width="8" stroke-linejoin="round"/>
<line x1="134" y1="456.853" x2="399" y2="456.853" stroke="#222325" stroke-width="8" stroke-linecap="round"/>
<line x1="134" y1="456.853" x2="399" y2="456.853" stroke="black" stroke-opacity="0.2" stroke-width="8" stroke-linecap="round"/>
<path d="M239.699 417.296C248.099 418.938 253.673 423.151 253.673 423.151" stroke="#222325" stroke-width="8" stroke-linecap="round"/>
<path d="M239.699 417.296C248.099 418.938 253.673 423.151 253.673 423.151" stroke="black" stroke-opacity="0.2" stroke-width="8" stroke-linecap="round"/>
<line x1="236.069" y1="362.776" x2="260.944" y2="362.776" stroke="#222325" stroke-width="8" stroke-linecap="round"/>
<line x1="236.069" y1="362.776" x2="260.944" y2="362.776" stroke="black" stroke-opacity="0.2" stroke-width="8" stroke-linecap="round"/>
<line x1="198.959" y1="442.336" x2="263.456" y2="442.336" stroke="#222325" stroke-width="8" stroke-linecap="round"/>
<line x1="198.959" y1="442.336" x2="263.456" y2="442.336" stroke="black" stroke-opacity="0.2" stroke-width="8" stroke-linecap="round"/>
<path d="M383.938 125.748L383.967 125.446L383.949 125.144C383.353 114.789 382.448 104.182 378.188 94.5022C373.842 84.6264 366.158 76.0199 352.641 69.2444C339.613 62.7138 326.427 60.2389 315.902 58.2633C315.65 58.2161 315.4 58.1692 315.152 58.1225C309.731 57.1039 305.224 56.2296 301.61 55.0338C297.972 53.8301 295.867 52.4909 294.731 50.9628C293.616 49.4639 293.312 47.8848 293.573 45.8585C293.858 43.6435 294.778 41.184 296.01 38.1301C296.105 37.8945 296.201 37.6552 296.3 37.4125C297.399 34.7004 298.67 31.5636 299.364 28.3765C300.141 24.8063 300.281 20.8437 298.621 16.8218C297.525 14.1667 295.278 12.224 292.878 10.7977C290.419 9.33646 287.367 8.15986 283.989 7.22245C277.22 5.34392 268.562 4.26901 259.279 4.08108C240.804 3.70707 218.875 6.8336 203.402 15.0794C189.215 22.6402 175.192 33.4156 164.43 49.3295C153.655 65.262 146.3 86.1214 145.126 113.601C144.827 120.622 145.579 141.344 145.895 148.09C146.447 159.913 147.934 179.114 152.109 197.902C156.234 216.468 163.175 235.576 175.261 246.298C181.876 252.167 189.914 254.922 198.213 256.244C206.149 257.507 214.652 257.502 222.709 257.497C223.013 257.496 223.317 257.496 223.619 257.496C223.622 257.496 223.625 257.496 223.627 257.496L302.705 257.716L302.718 257.716C311.277 257.713 322.235 257.151 333.099 252.072C344.081 246.938 354.577 237.381 362.598 220.117C370.502 203.105 375.817 179.396 379.155 160.211C380.833 150.565 382.027 141.962 382.802 135.77C383.19 132.672 383.473 130.175 383.66 128.448C383.753 127.585 383.822 126.914 383.868 126.457C383.88 126.341 383.89 126.238 383.899 126.15C383.908 126.065 383.915 125.993 383.92 125.935L383.934 125.798L383.937 125.763L383.938 125.753L383.938 125.75C383.938 125.749 383.938 125.748 379.956 125.377L383.938 125.748Z" fill="#EEEFFC"/>
<path d="M383.938 125.748L383.967 125.446L383.949 125.144C383.353 114.789 382.448 104.182 378.188 94.5022C373.842 84.6264 366.158 76.0199 352.641 69.2444C339.613 62.7138 326.427 60.2389 315.902 58.2633C315.65 58.2161 315.4 58.1692 315.152 58.1225C309.731 57.1039 305.224 56.2296 301.61 55.0338C297.972 53.8301 295.867 52.4909 294.731 50.9628C293.616 49.4639 293.312 47.8848 293.573 45.8585C293.858 43.6435 294.778 41.184 296.01 38.1301C296.105 37.8945 296.201 37.6552 296.3 37.4125C297.399 34.7004 298.67 31.5636 299.364 28.3765C300.141 24.8063 300.281 20.8437 298.621 16.8218C297.525 14.1667 295.278 12.224 292.878 10.7977C290.419 9.33646 287.367 8.15986 283.989 7.22245C277.22 5.34392 268.562 4.26901 259.279 4.08108C240.804 3.70707 218.875 6.8336 203.402 15.0794C189.215 22.6402 175.192 33.4156 164.43 49.3295C153.655 65.262 146.3 86.1214 145.126 113.601C144.827 120.622 145.579 141.344 145.895 148.09C146.447 159.913 147.934 179.114 152.109 197.902C156.234 216.468 163.175 235.576 175.261 246.298C181.876 252.167 189.914 254.922 198.213 256.244C206.149 257.507 214.652 257.502 222.709 257.497C223.013 257.496 223.317 257.496 223.619 257.496C223.622 257.496 223.625 257.496 223.627 257.496L302.705 257.716L302.718 257.716C311.277 257.713 322.235 257.151 333.099 252.072C344.081 246.938 354.577 237.381 362.598 220.117C370.502 203.105 375.817 179.396 379.155 160.211C380.833 150.565 382.027 141.962 382.802 135.77C383.19 132.672 383.473 130.175 383.66 128.448C383.753 127.585 383.822 126.914 383.868 126.457C383.88 126.341 383.89 126.238 383.899 126.15C383.908 126.065 383.915 125.993 383.92 125.935L383.934 125.798L383.937 125.763L383.938 125.753L383.938 125.75C383.938 125.749 383.938 125.748 379.956 125.377L383.938 125.748Z" stroke="#222325" stroke-width="8"/>
<path d="M383.938 125.748L383.967 125.446L383.949 125.144C383.353 114.789 382.448 104.182 378.188 94.5022C373.842 84.6264 366.158 76.0199 352.641 69.2444C339.613 62.7138 326.427 60.2389 315.902 58.2633C315.65 58.2161 315.4 58.1692 315.152 58.1225C309.731 57.1039 305.224 56.2296 301.61 55.0338C297.972 53.8301 295.867 52.4909 294.731 50.9628C293.616 49.4639 293.312 47.8848 293.573 45.8585C293.858 43.6435 294.778 41.184 296.01 38.1301C296.105 37.8945 296.201 37.6552 296.3 37.4125C297.399 34.7004 298.67 31.5636 299.364 28.3765C300.141 24.8063 300.281 20.8437 298.621 16.8218C297.525 14.1667 295.278 12.224 292.878 10.7977C290.419 9.33646 287.367 8.15986 283.989 7.22245C277.22 5.34392 268.562 4.26901 259.279 4.08108C240.804 3.70707 218.875 6.8336 203.402 15.0794C189.215 22.6402 175.192 33.4156 164.43 49.3295C153.655 65.262 146.3 86.1214 145.126 113.601C144.827 120.622 145.579 141.344 145.895 148.09C146.447 159.913 147.934 179.114 152.109 197.902C156.234 216.468 163.175 235.576 175.261 246.298C181.876 252.167 189.914 254.922 198.213 256.244C206.149 257.507 214.652 257.502 222.709 257.497C223.013 257.496 223.317 257.496 223.619 257.496C223.622 257.496 223.625 257.496 223.627 257.496L302.705 257.716L302.718 257.716C311.277 257.713 322.235 257.151 333.099 252.072C344.081 246.938 354.577 237.381 362.598 220.117C370.502 203.105 375.817 179.396 379.155 160.211C380.833 150.565 382.027 141.962 382.802 135.77C383.19 132.672 383.473 130.175 383.66 128.448C383.753 127.585 383.822 126.914 383.868 126.457C383.88 126.341 383.89 126.238 383.899 126.15C383.908 126.065 383.915 125.993 383.92 125.935L383.934 125.798L383.937 125.763L383.938 125.753L383.938 125.75C383.938 125.749 383.938 125.748 379.956 125.377L383.938 125.748Z" stroke="black" stroke-opacity="0.2" stroke-width="8"/>
<mask id="mask0_6539_1578" style="mask-type:alpha" maskUnits="userSpaceOnUse" x="149" y="8" width="231" height="246">
<path d="M379.956 125.377C378.761 104.625 376.377 85.6184 350.846 72.8206C325.315 60.0229 298.989 63.3963 291.52 53.3512C284.051 43.306 299.935 30.4906 294.923 18.3507C289.912 6.21077 234.539 3.01669 205.281 18.609C177.765 33.2734 151.413 60.1168 149.123 113.768C148.832 120.572 149.572 141.098 149.89 147.9C150.985 171.347 155.782 223.668 177.917 243.305C189.61 253.679 206.795 253.503 223.629 253.496L302.719 253.716C319.553 253.709 343.636 251.438 358.971 218.434C374.306 185.43 379.956 125.377 379.956 125.377Z" fill="#EEEFFC"/>
</mask>
<g mask="url(#mask0_6539_1578)">
<path d="M379.578 128.284C378.45 108.512 372.357 93.1359 348.259 80.943C324.16 68.75 295.122 70.7285 284.648 56.5085C274.173 42.2885 289.719 34.5663 284.989 23.0001C280.259 11.434 225.534 9.13259 197.918 23.9878C171.946 37.959 151.279 69.2704 149.116 120.386C148.842 126.869 149.541 146.424 149.841 152.905C150.874 175.243 155.402 225.091 176.294 243.8C187.332 253.684 203.553 253.516 219.442 253.51L294.095 253.72C309.985 253.713 345.296 248.386 359.77 216.942C374.244 185.498 379.578 128.284 379.578 128.284Z" fill="#C9F4E1"/>
<path d="M356.532 197.804C348.998 215.232 340.881 230.305 324.259 239.938C307.637 249.571 278.856 247.825 260.322 247.489C189.767 246.209 174.921 229.677 165.274 191.917C155.627 154.158 175.216 74.6314 174.953 58.4374C174.953 58.4374 177.985 36.7342 208.412 52.0993C238.84 67.4644 248.747 71.918 281.069 85.7655C313.391 99.613 336.984 106.489 357.408 126.031C377.831 145.573 364.067 180.376 356.532 197.804Z" fill="#52DD9E"/>
<g filter="url(#filter2_i_6539_1578)">
<path d="M360.438 196.601C356.269 214.721 343.851 233.352 331.414 239.191C318.976 245.03 278.039 248.378 257.973 247.934C199.048 246.631 176.742 250.856 163.624 192.838C150.505 134.82 157.262 58.1402 183.962 48.218C183.962 48.218 185.077 65.3369 226.777 89.6652C268.478 113.994 327.357 119.866 343.619 122.258C359.882 124.65 369.742 137.626 369.091 152.397C368.439 167.169 364.607 178.481 360.438 196.601Z" fill="#70FFBE"/>
</g>
<path d="M255.68 178.435C269.692 178.629 276.096 179.099 287.282 185.487" stroke="#222325" stroke-width="8" stroke-linecap="round"/>
<path d="M255.68 178.435C269.692 178.629 276.096 179.099 287.282 185.487" stroke="black" stroke-opacity="0.2" stroke-width="8" stroke-linecap="round"/>
<ellipse cx="8.76213" cy="10.4102" rx="8.76213" ry="10.4102" transform="matrix(0.977931 0.208927 -0.209737 0.977758 243.894 130.008)" fill="#222325"/>
<ellipse cx="8.76213" cy="10.4102" rx="8.76213" ry="10.4102" transform="matrix(0.977931 0.208927 -0.209737 0.977758 243.894 130.008)" fill="black" fill-opacity="0.2"/>
<ellipse cx="8.57621" cy="9.72492" rx="8.57621" ry="9.72492" transform="matrix(0.985367 0.170448 -0.171265 0.985225 293.761 131.85)" fill="#222325"/>
<ellipse cx="8.57621" cy="9.72492" rx="8.57621" ry="9.72492" transform="matrix(0.985367 0.170448 -0.171265 0.985225 293.761 131.85)" fill="black" fill-opacity="0.2"/>
<path d="M288.5 25.323C283.74 29.6283 274.452 42.1592 275.38 57.8399" stroke="#222325" stroke-width="8" stroke-linecap="round" stroke-linejoin="round"/>
<path d="M288.5 25.323C283.74 29.6283 274.452 42.1592 275.38 57.8399" stroke="black" stroke-opacity="0.2" stroke-width="8" stroke-linecap="round" stroke-linejoin="round"/>
</g>
<g filter="url(#filter3_i_6539_1578)">
<path d="M5.17915 213.147C2.05716 232.182 11.4093 236.496 30.7871 247.202C50.165 257.908 80.3326 280.536 122.352 272.994C164.371 265.451 181.66 185.336 181.66 170.317C181.66 155.298 162.17 155.196 153.221 163.254C144.271 171.311 135.11 237.649 109.287 237.649C83.4643 237.649 71.1668 227.863 62.3058 218.267C62.2539 197.654 47.3082 196.23 42.2346 202.754C25.3388 182.035 7.38673 199.687 5.17915 213.147Z" fill="#70FFBE"/>
</g>
<path d="M5.17915 213.147C2.05716 232.182 11.4093 236.496 30.7871 247.202C50.165 257.908 80.3326 280.536 122.352 272.994C164.371 265.451 181.66 185.336 181.66 170.317C181.66 155.298 162.17 155.196 153.221 163.254C144.271 171.311 135.11 237.649 109.287 237.649C83.4643 237.649 71.1668 227.863 62.3058 218.267C62.2539 197.654 47.3082 196.23 42.2346 202.754C25.3388 182.035 7.38673 199.687 5.17915 213.147Z" stroke="#222325" stroke-width="8" stroke-linecap="round" stroke-linejoin="round"/>
<path d="M5.17915 213.147C2.05716 232.182 11.4093 236.496 30.7871 247.202C50.165 257.908 80.3326 280.536 122.352 272.994C164.371 265.451 181.66 185.336 181.66 170.317C181.66 155.298 162.17 155.196 153.221 163.254C144.271 171.311 135.11 237.649 109.287 237.649C83.4643 237.649 71.1668 227.863 62.3058 218.267C62.2539 197.654 47.3082 196.23 42.2346 202.754C25.3388 182.035 7.38673 199.687 5.17915 213.147Z" stroke="black" stroke-opacity="0.2" stroke-width="8" stroke-linecap="round" stroke-linejoin="round"/>
<g filter="url(#filter4_i_6539_1578)">
<path d="M525.064 213.147C528.186 232.182 518.833 236.496 499.456 247.202C480.078 257.908 449.91 280.536 407.891 272.994C365.872 265.451 348.582 185.336 348.582 170.317C348.583 155.298 368.073 155.196 377.022 163.254C385.972 171.311 395.133 237.649 420.956 237.649C446.778 237.649 459.076 227.863 467.937 218.267C467.989 197.654 482.934 196.23 488.008 202.754C504.904 182.035 522.856 199.687 525.064 213.147Z" fill="#70FFBE"/>
</g>
<path d="M525.064 213.147C528.186 232.182 518.833 236.496 499.456 247.202C480.078 257.908 449.91 280.536 407.891 272.994C365.872 265.451 348.582 185.336 348.582 170.317C348.583 155.298 368.073 155.196 377.022 163.254C385.972 171.311 395.133 237.649 420.956 237.649C446.778 237.649 459.076 227.863 467.937 218.267C467.989 197.654 482.934 196.23 488.008 202.754C504.904 182.035 522.856 199.687 525.064 213.147Z" stroke="#222325" stroke-width="8" stroke-linecap="round" stroke-linejoin="round"/>
<path d="M525.064 213.147C528.186 232.182 518.833 236.496 499.456 247.202C480.078 257.908 449.91 280.536 407.891 272.994C365.872 265.451 348.582 185.336 348.582 170.317C348.583 155.298 368.073 155.196 377.022 163.254C385.972 171.311 395.133 237.649 420.956 237.649C446.778 237.649 459.076 227.863 467.937 218.267C467.989 197.654 482.934 196.23 488.008 202.754C504.904 182.035 522.856 199.687 525.064 213.147Z" stroke="black" stroke-opacity="0.2" stroke-width="8" stroke-linecap="round" stroke-linejoin="round"/>
<defs>
<filter id="filter0_i_6539_1578" x="272.415" y="239.291" width="87.5815" height="215.565" filterUnits="userSpaceOnUse" color-interpolation-filters="sRGB">
<feFlood flood-opacity="0" result="BackgroundImageFix"/>
<feBlend mode="normal" in="SourceGraphic" in2="BackgroundImageFix" result="shape"/>
<feColorMatrix in="SourceAlpha" type="matrix" values="0 0 0 0 0 0 0 0 0 0 0 0 0 0 0 0 0 0 127 0" result="hardAlpha"/>
<feOffset dx="-5" dy="-17"/>
<feGaussianBlur stdDeviation="1.5"/>
<feComposite in2="hardAlpha" operator="arithmetic" k2="-1" k3="1"/>
<feColorMatrix type="matrix" values="0 0 0 0 0.141667 0 0 0 0 0.170204 0 0 0 0 0.425 0 0 0 0.34 0"/>
<feBlend mode="darken" in2="shape" result="effect1_innerShadow_6539_1578"/>
</filter>
<filter id="filter1_i_6539_1578" x="188.569" y="242.853" width="82" height="218" filterUnits="userSpaceOnUse" color-interpolation-filters="sRGB">
<feFlood flood-opacity="0" result="BackgroundImageFix"/>
<feBlend mode="normal" in="SourceGraphic" in2="BackgroundImageFix" result="shape"/>
<feColorMatrix in="SourceAlpha" type="matrix" values="0 0 0 0 0 0 0 0 0 0 0 0 0 0 0 0 0 0 127 0" result="hardAlpha"/>
<feOffset dx="-11" dy="-17"/>
<feGaussianBlur stdDeviation="1.5"/>
<feComposite in2="hardAlpha" operator="arithmetic" k2="-1" k3="1"/>
<feColorMatrix type="matrix" values="0 0 0 0 0.141667 0 0 0 0 0.170204 0 0 0 0 0.425 0 0 0 0.34 0"/>
<feBlend mode="darken" in2="shape" result="effect1_innerShadow_6539_1578"/>
</filter>
<filter id="filter2_i_6539_1578" x="157.132" y="46.218" width="212.989" height="201.755" filterUnits="userSpaceOnUse" color-interpolation-filters="sRGB">
<feFlood flood-opacity="0" result="BackgroundImageFix"/>
<feBlend mode="normal" in="SourceGraphic" in2="BackgroundImageFix" result="shape"/>
<feColorMatrix in="SourceAlpha" type="matrix" values="0 0 0 0 0 0 0 0 0 0 0 0 0 0 0 0 0 0 127 0" result="hardAlpha"/>
<feOffset dx="1" dy="-12"/>
<feGaussianBlur stdDeviation="1"/>
<feComposite in2="hardAlpha" operator="arithmetic" k2="-1" k3="1"/>
<feColorMatrix type="matrix" values="0 0 0 0 0.321569 0 0 0 0 0.376471 0 0 0 0 0.866667 0 0 0 0.6 0"/>
<feBlend mode="normal" in2="shape" result="effect1_innerShadow_6539_1578"/>
</filter>
<filter id="filter3_i_6539_1578" x="-2.41162" y="150.92" width="188.072" height="127.578" filterUnits="userSpaceOnUse" color-interpolation-filters="sRGB">
<feFlood flood-opacity="0" result="BackgroundImageFix"/>
<feBlend mode="normal" in="SourceGraphic" in2="BackgroundImageFix" result="shape"/>
<feColorMatrix in="SourceAlpha" type="matrix" values="0 0 0 0 0 0 0 0 0 0 0 0 0 0 0 0 0 0 127 0" result="hardAlpha"/>
<feOffset dx="-5" dy="-17"/>
<feGaussianBlur stdDeviation="1.5"/>
<feComposite in2="hardAlpha" operator="arithmetic" k2="-1" k3="1"/>
<feColorMatrix type="matrix" values="0 0 0 0 0.321569 0 0 0 0 0.376471 0 0 0 0 0.866667 0 0 0 0.6 0"/>
<feBlend mode="normal" in2="shape" result="effect1_innerShadow_6539_1578"/>
</filter>
<filter id="filter4_i_6539_1578" x="341.583" y="150.92" width="188.072" height="127.578" filterUnits="userSpaceOnUse" color-interpolation-filters="sRGB">
<feFlood flood-opacity="0" result="BackgroundImageFix"/>
<feBlend mode="normal" in="SourceGraphic" in2="BackgroundImageFix" result="shape"/>
<feColorMatrix in="SourceAlpha" type="matrix" values="0 0 0 0 0 0 0 0 0 0 0 0 0 0 0 0 0 0 127 0" result="hardAlpha"/>
<feOffset dx="-5" dy="-17"/>
<feGaussianBlur stdDeviation="1.5"/>
<feComposite in2="hardAlpha" operator="arithmetic" k2="-1" k3="1"/>
<feColorMatrix type="matrix" values="0 0 0 0 0.321569 0 0 0 0 0.376471 0 0 0 0 0.866667 0 0 0 0.6 0"/>
<feBlend mode="normal" in2="shape" result="effect1_innerShadow_6539_1578"/>
</filter>
</defs>
</svg>
